<?xml version="1.0" encoding="utf-8"?>
<!-- Generator: Adobe Illustrator 25.1.0, SVG Export Plug-In . SVG Version: 6.00 Build 0)  -->
<svg version="1.1" id="Layer_1" xmlns="http://www.w3.org/2000/svg" xmlns:xlink="http://www.w3.org/1999/xlink" x="0px" y="0px"
	 viewBox="0 0 276 237" style="enable-background:new 0 0 276 237;" xml:space="preserve">
<style type="text/css">
	.st0{fill:#FFFFFF;}
	.st1{enable-background:new    ;}
	.st2{fill:#7E89FD;}
	.st3{fill:#3D3D89;}
	.st4{fill:url(#SVGID_1_);}
</style>
<desc>Created with Sketch.</desc>
<rect x="-2.2" y="-2.9" class="st0" width="280.5" height="242.8"/>
<g class="st1">
	<path class="st2" d="M30.5,134.3l7-0.7c0.4,2.4,1.3,4.1,2.6,5.2c1.3,1.1,3,1.7,5.2,1.7c2.3,0,4.1-0.5,5.3-1.5
		c1.2-1,1.8-2.1,1.8-3.5c0-0.8-0.2-1.6-0.7-2.2c-0.5-0.6-1.4-1.1-2.6-1.6c-0.8-0.3-2.8-0.8-5.8-1.6c-3.9-1-6.6-2.1-8.2-3.5
		c-2.2-2-3.3-4.4-3.3-7.2c0-1.8,0.5-3.5,1.6-5.1c1-1.6,2.5-2.8,4.5-3.6c1.9-0.8,4.3-1.2,7-1.2c4.5,0,7.9,1,10.1,3
		c2.3,2,3.5,4.6,3.6,7.9l-7.2,0.3c-0.3-1.8-1-3.2-2-4c-1-0.8-2.5-1.2-4.6-1.2c-2.1,0-3.7,0.4-4.9,1.3c-0.8,0.6-1.1,1.3-1.1,2.2
		c0,0.8,0.4,1.6,1.1,2.2c0.9,0.8,3.1,1.6,6.6,2.4s6.1,1.7,7.8,2.6c1.7,0.9,3,2.1,4,3.6c1,1.5,1.4,3.4,1.4,5.7c0,2.1-0.6,4-1.7,5.8
		c-1.1,1.8-2.8,3.1-4.8,4c-2.1,0.9-4.7,1.3-7.8,1.3c-4.5,0-8-1-10.4-3.1C32.4,141.4,31,138.3,30.5,134.3z"/>
	<path class="st2" d="M65.6,116.5v-6.3h6.9v6.3H65.6z M65.6,146V120h6.9V146H65.6z"/>
	<path class="st2" d="M91.4,120v5.5h-4.7v10.4c0,2.1,0,3.3,0.1,3.7c0.1,0.3,0.3,0.6,0.6,0.9c0.3,0.2,0.7,0.3,1.2,0.3
		c0.6,0,1.6-0.2,2.8-0.7l0.6,5.3c-1.6,0.7-3.4,1-5.4,1c-1.2,0-2.4-0.2-3.3-0.6c-1-0.4-1.7-1-2.2-1.6c-0.5-0.7-0.8-1.5-1-2.7
		c-0.1-0.8-0.2-2.4-0.2-4.8v-11.3h-3.1V120h3.1v-5.2l6.9-4v9.2H91.4z"/>
	<path class="st2" d="M111.2,137.7l6.8,1.1c-0.9,2.5-2.3,4.4-4.2,5.7c-1.9,1.3-4.3,2-7.1,2c-4.5,0-7.8-1.5-10-4.4
		c-1.7-2.4-2.6-5.3-2.6-8.9c0-4.3,1.1-7.7,3.4-10.1c2.2-2.4,5.1-3.7,8.5-3.7c3.9,0,6.9,1.3,9.1,3.8c2.2,2.5,3.3,6.5,3.2,11.7h-17.2
		c0,2,0.6,3.6,1.7,4.7c1.1,1.1,2.4,1.7,4,1.7c1.1,0,2-0.3,2.7-0.9S110.8,139,111.2,137.7z M111.6,130.8c0-2-0.6-3.5-1.5-4.5
		c-1-1-2.2-1.5-3.6-1.5c-1.5,0-2.7,0.5-3.7,1.6c-1,1.1-1.5,2.6-1.4,4.4H111.6z"/>
</g>
<g class="st1">
	<path class="st2" d="M30.5,187.3l7-0.7c0.4,2.4,1.3,4.1,2.6,5.2c1.3,1.1,3,1.7,5.2,1.7c2.3,0,4.1-0.5,5.3-1.5
		c1.2-1,1.8-2.1,1.8-3.5c0-0.8-0.2-1.6-0.7-2.2c-0.5-0.6-1.4-1.1-2.6-1.6c-0.8-0.3-2.8-0.8-5.8-1.6c-3.9-1-6.6-2.1-8.2-3.5
		c-2.2-2-3.3-4.4-3.3-7.2c0-1.8,0.5-3.5,1.6-5.1c1-1.6,2.5-2.8,4.5-3.6c1.9-0.8,4.3-1.2,7-1.2c4.5,0,7.9,1,10.1,3
		c2.3,2,3.5,4.6,3.6,7.9l-7.2,0.3c-0.3-1.8-1-3.2-2-4c-1-0.8-2.5-1.2-4.6-1.2c-2.1,0-3.7,0.4-4.9,1.3c-0.8,0.6-1.1,1.3-1.1,2.2
		c0,0.8,0.4,1.6,1.1,2.2c0.9,0.8,3.1,1.6,6.6,2.4s6.1,1.7,7.8,2.6c1.7,0.9,3,2.1,4,3.6c1,1.5,1.4,3.4,1.4,5.7c0,2.1-0.6,4-1.7,5.8
		c-1.1,1.8-2.8,3.1-4.8,4c-2.1,0.9-4.7,1.3-7.8,1.3c-4.5,0-8-1-10.4-3.1C32.4,194.4,31,191.3,30.5,187.3z"/>
	<path class="st2" d="M80.7,190.7l6.8,1.1c-0.9,2.5-2.3,4.4-4.2,5.7c-1.9,1.3-4.3,2-7.1,2c-4.5,0-7.8-1.5-10-4.4
		c-1.7-2.4-2.6-5.3-2.6-8.9c0-4.3,1.1-7.7,3.4-10.1c2.2-2.4,5.1-3.7,8.5-3.7c3.9,0,6.9,1.3,9.1,3.8c2.2,2.5,3.3,6.5,3.2,11.7H70.7
		c0,2,0.6,3.6,1.7,4.7c1.1,1.1,2.4,1.7,4,1.7c1.1,0,2-0.3,2.7-0.9S80.3,192,80.7,190.7z M81.1,183.8c0-2-0.6-3.5-1.5-4.5
		c-1-1-2.2-1.5-3.6-1.5c-1.5,0-2.7,0.5-3.7,1.6c-1,1.1-1.5,2.6-1.4,4.4H81.1z"/>
	<path class="st2" d="M105.3,173v5.5h-4.7v10.4c0,2.1,0,3.3,0.1,3.7c0.1,0.3,0.3,0.6,0.6,0.9c0.3,0.2,0.7,0.3,1.2,0.3
		c0.6,0,1.6-0.2,2.8-0.7l0.6,5.3c-1.6,0.7-3.4,1-5.4,1c-1.2,0-2.4-0.2-3.3-0.6c-1-0.4-1.7-1-2.2-1.6c-0.5-0.7-0.8-1.5-1-2.7
		c-0.1-0.8-0.2-2.4-0.2-4.8v-11.3h-3.1V173h3.1v-5.2l6.9-4v9.2H105.3z"/>
	<path class="st2" d="M122,173v5.5h-4.7v10.4c0,2.1,0,3.3,0.1,3.7c0.1,0.3,0.3,0.6,0.6,0.9c0.3,0.2,0.7,0.3,1.2,0.3
		c0.6,0,1.6-0.2,2.8-0.7l0.6,5.3c-1.6,0.7-3.4,1-5.4,1c-1.2,0-2.4-0.2-3.3-0.6c-1-0.4-1.7-1-2.2-1.6c-0.5-0.7-0.8-1.5-1-2.7
		c-0.1-0.8-0.2-2.4-0.2-4.8v-11.3h-3.1V173h3.1v-5.2l6.9-4v9.2H122z"/>
	<path class="st2" d="M126.8,169.5v-6.3h6.9v6.3H126.8z M126.8,199V173h6.9V199H126.8z"/>
	<path class="st2" d="M164.2,199h-6.9v-13.2c0-2.8-0.1-4.6-0.4-5.4c-0.3-0.8-0.8-1.5-1.4-1.9c-0.7-0.5-1.5-0.7-2.4-0.7
		c-1.2,0-2.3,0.3-3.2,1c-0.9,0.7-1.6,1.5-1.9,2.6c-0.4,1.1-0.5,3.1-0.5,6V199h-6.9V173h6.4v3.8c2.3-2.9,5.1-4.4,8.5-4.4
		c1.5,0,2.9,0.3,4.2,0.8c1.3,0.5,2.2,1.2,2.8,2.1c0.6,0.8,1.1,1.8,1.3,2.9c0.3,1.1,0.4,2.6,0.4,4.6V199z"/>
	<path class="st2" d="M170.6,200.7l7.8,1c0.1,0.9,0.4,1.5,0.9,1.9c0.7,0.5,1.7,0.7,3.1,0.7c1.8,0,3.1-0.3,4-0.8
		c0.6-0.4,1.1-0.9,1.4-1.7c0.2-0.6,0.3-1.6,0.3-3.1v-3.8c-2.1,2.8-4.6,4.2-7.8,4.2c-3.5,0-6.2-1.5-8.3-4.4c-1.6-2.3-2.4-5.2-2.4-8.7
		c0-4.3,1-7.7,3.1-10c2.1-2.3,4.7-3.4,7.8-3.4c3.2,0,5.9,1.4,7.9,4.2V173h6.4v23.3c0,3.1-0.3,5.3-0.8,6.9s-1.2,2.7-2.1,3.6
		c-0.9,0.9-2.1,1.5-3.6,2c-1.5,0.5-3.4,0.7-5.8,0.7c-4.4,0-7.5-0.8-9.4-2.3c-1.8-1.5-2.8-3.4-2.8-5.7
		C170.5,201.3,170.5,201,170.6,200.7z M176.7,185.5c0,2.8,0.5,4.8,1.6,6c1.1,1.3,2.4,1.9,3.9,1.9c1.7,0,3.1-0.7,4.2-2
		c1.2-1.3,1.7-3.3,1.7-5.8c0-2.7-0.6-4.7-1.7-6c-1.1-1.3-2.5-2-4.2-2c-1.6,0-3,0.6-4.1,1.9C177.2,180.9,176.7,182.8,176.7,185.5z"/>
	<path class="st2" d="M199.3,191.6l6.9-1c0.3,1.3,0.9,2.3,1.8,3c0.9,0.7,2.1,1,3.8,1c1.8,0,3.1-0.3,4-1c0.6-0.5,0.9-1.1,0.9-1.8
		c0-0.5-0.2-1-0.5-1.3c-0.3-0.3-1.1-0.6-2.3-0.9c-5.5-1.2-9-2.3-10.5-3.3c-2.1-1.4-3.1-3.3-3.1-5.8c0-2.2,0.9-4.1,2.7-5.7
		c1.8-1.5,4.5-2.3,8.3-2.3c3.5,0,6.2,0.6,7.9,1.7c1.7,1.2,2.9,2.9,3.6,5.1l-6.5,1.2c-0.3-1-0.8-1.8-1.6-2.3
		c-0.8-0.5-1.9-0.8-3.3-0.8c-1.8,0-3.1,0.3-3.9,0.8c-0.5,0.4-0.8,0.8-0.8,1.4c0,0.5,0.2,0.9,0.7,1.2c0.6,0.5,2.8,1.1,6.4,1.9
		c3.7,0.8,6.2,1.8,7.7,3.1c1.4,1.2,2.1,2.9,2.1,5.1c0,2.4-1,4.4-3,6.1s-4.9,2.6-8.8,2.6c-3.5,0-6.3-0.7-8.4-2.1
		C201.3,196,200,194,199.3,191.6z"/>
</g>
<path class="st3" d="M250.9,108h-30.5l-3.8,6.5l-11.3-6.5h-7.1c-0.3,0.2-0.6,0.4-0.9,0.6c-1.4,0.8-2.9,1.6-4.4,2.2v4.5h58V108z"/>
<rect x="260.3" y="37.8" class="st2" width="17.9" height="7.3"/>
<polygon class="st3" points="256.8,86.6 232.8,86.6 228.6,93.9 256.8,93.9 "/>
<path class="st3" d="M220.4,68.6c0,0.3,0,0.6,0,0.9h21.8v-7.3h-19.5l-2.5,1.5C220.3,65.3,220.4,66.9,220.4,68.6z"/>
<rect x="250.4" y="132.4" class="st2" width="27.8" height="7.3"/>
<rect x="250.4" y="62.2" class="st2" width="27.8" height="7.3"/>
<rect x="267" y="86.6" class="st2" width="11.3" height="7.3"/>
<rect x="260.3" y="108" class="st2" width="17.9" height="7.3"/>
<polygon class="st3" points="229.6,45.1 250.9,45.1 250.9,37.8 225.4,37.8 "/>
<rect x="161.4" y="132.4" class="st3" width="80.8" height="7.3"/>
<g>
	<path class="st0" d="M214.3,68.6c0-2.7-0.3-5.4-0.8-8l13.4-7.7l-12.5-21.7L201,38.8c-4-3.6-8.8-6.4-14.1-8.2V15.3h-25.1v15.4
		c-2.3,0.8-4.6,1.8-6.7,2.9c-0.3,0.1-0.5,0.3-0.8,0.4c-0.2,0.1-0.5,0.3-0.7,0.4c-2.1,1.3-4.1,2.7-5.9,4.4l-13.3-7.7l-12.5,21.7
		l13.3,7.7c-0.5,2.4-0.8,4.8-0.8,7.3c0,0.3,0,0.6,0,0.9s0,0.6,0,0.9c0,2.4,0.3,4.9,0.8,7.3l-13.3,7.7l12.5,21.7l13.3-7.7
		c4.1,3.7,9,6.4,14.1,8.1v15.4h25.1v-15.5c2.5-0.8,5-1.9,7.3-3.3c2.4-1.4,4.7-3,6.7-4.8l13.4,7.8l12.5-21.7l-13.4-7.8
		C214,74.1,214.3,71.4,214.3,68.6z M190.8,86.2c-0.1,0.1-0.2,0.2-0.3,0.3c-0.4,0.4-0.9,0.8-1.3,1.1c-0.2,0.2-0.4,0.3-0.7,0.5
		c-0.4,0.3-0.8,0.5-1.1,0.8c-0.3,0.2-0.6,0.4-0.9,0.6c-0.3,0.2-0.6,0.4-1,0.5c-0.4,0.2-0.8,0.4-1.2,0.6c-0.2,0.1-0.5,0.2-0.7,0.3
		c-0.5,0.2-1.1,0.4-1.6,0.6c-0.1,0-0.3,0.1-0.4,0.1c-2.2,0.7-4.6,1-7,1c-13.3,0-24.1-10.8-24.1-24.1c0-3.3,0.7-6.4,1.8-9.2
		c0.1-0.1,0.1-0.3,0.2-0.4c0.2-0.5,0.5-1,0.7-1.5c0.2-0.3,0.3-0.6,0.5-0.9c0.2-0.3,0.4-0.6,0.5-0.9c0.3-0.5,0.6-0.9,0.9-1.3
		c0.1-0.1,0.2-0.2,0.3-0.3c1.9-2.4,4.2-4.6,7.1-6.2c11.5-6.7,26.3-2.7,33,8.8c1.2,2.1,2.1,4.3,2.6,6.6c0,0.1,0.1,0.3,0.1,0.4
		c0.1,0.6,0.2,1.1,0.3,1.7c0,0.3,0.1,0.5,0.1,0.8c0,0.5,0.1,0.9,0.1,1.4c0,0.4,0,0.7,0,1.1s0,0.7,0,1.1c0,0.5-0.1,0.9-0.1,1.4
		c0,0.3-0.1,0.5-0.1,0.8c-0.1,0.6-0.2,1.1-0.3,1.7c0,0.1-0.1,0.3-0.1,0.4c-0.5,2.3-1.4,4.5-2.6,6.6
		C193.9,82.8,192.5,84.6,190.8,86.2z"/>
	
		<linearGradient id="SVGID_1_" gradientUnits="userSpaceOnUse" x1="121.9" y1="910.7" x2="226.9" y2="910.7" gradientTransform="matrix(1 0 0 1 0 -842)">
		<stop  offset="0" style="stop-color:#35C9E2;stop-opacity:0.5"/>
		<stop  offset="1" style="stop-color:#35E6BB"/>
	</linearGradient>
	<path class="st4" d="M214.3,68.6c0-2.7-0.3-5.4-0.8-8l13.4-7.7l-12.5-21.7L201,38.8c-4-3.6-8.8-6.4-14.1-8.2V15.3h-25.1v15.4
		c-2.3,0.8-4.6,1.8-6.7,2.9c-0.3,0.1-0.5,0.3-0.8,0.4c-0.2,0.1-0.5,0.3-0.7,0.4c-2.1,1.3-4.1,2.7-5.9,4.4l-13.3-7.7l-12.5,21.7
		l13.3,7.7c-0.5,2.4-0.8,4.8-0.8,7.3c0,0.3,0,0.6,0,0.9s0,0.6,0,0.9c0,2.4,0.3,4.9,0.8,7.3l-13.3,7.7l12.5,21.7l13.3-7.7
		c4.1,3.7,9,6.4,14.1,8.1v15.4h25.1v-15.5c2.5-0.8,5-1.9,7.3-3.3c2.4-1.4,4.7-3,6.7-4.8l13.4,7.8l12.5-21.7l-13.4-7.8
		C214,74.1,214.3,71.4,214.3,68.6z M190.8,86.2c-0.1,0.1-0.2,0.2-0.3,0.3c-0.4,0.4-0.9,0.8-1.3,1.1c-0.2,0.2-0.4,0.3-0.7,0.5
		c-0.4,0.3-0.8,0.5-1.1,0.8c-0.3,0.2-0.6,0.4-0.9,0.6c-0.3,0.2-0.6,0.4-1,0.5c-0.4,0.2-0.8,0.4-1.2,0.6c-0.2,0.1-0.5,0.2-0.7,0.3
		c-0.5,0.2-1.1,0.4-1.6,0.6c-0.1,0-0.3,0.1-0.4,0.1c-2.2,0.7-4.6,1-7,1c-13.3,0-24.1-10.8-24.1-24.1c0-3.3,0.7-6.4,1.8-9.2
		c0.1-0.1,0.1-0.3,0.2-0.4c0.2-0.5,0.5-1,0.7-1.5c0.2-0.3,0.3-0.6,0.5-0.9c0.2-0.3,0.4-0.6,0.5-0.9c0.3-0.5,0.6-0.9,0.9-1.3
		c0.1-0.1,0.2-0.2,0.3-0.3c1.9-2.4,4.2-4.6,7.1-6.2c11.5-6.7,26.3-2.7,33,8.8c1.2,2.1,2.1,4.3,2.6,6.6c0,0.1,0.1,0.3,0.1,0.4
		c0.1,0.6,0.2,1.1,0.3,1.7c0,0.3,0.1,0.5,0.1,0.8c0,0.5,0.1,0.9,0.1,1.4c0,0.4,0,0.7,0,1.1s0,0.7,0,1.1c0,0.5-0.1,0.9-0.1,1.4
		c0,0.3-0.1,0.5-0.1,0.8c-0.1,0.6-0.2,1.1-0.3,1.7c0,0.1-0.1,0.3-0.1,0.4c-0.5,2.3-1.4,4.5-2.6,6.6
		C193.9,82.8,192.5,84.6,190.8,86.2z"/>
</g>
</svg>
